# xmcd
#
# Track frame offsets: 
#        150
#        14892
#        34400
#        52417
#        62200
#        75427
#        85167
#        100772
#        118620
#        132935
#        147965
#        168972
#        182195
#        197885
#        219325
#        236047
#        258517
#
# Disc length: 3761 seconds
#
# Revision: 1
# Processed by: cddbd v1.5.2PL0 Copyright (c) Steve Scherf et al.
# Submitted via: ExactAudioCopyFreeDBPlugin 1.0
#
DISCID=fd0eaf11
DTITLE=Yello - You Gotta Say Yes To Another Excess
DYEAR=1900
DGENRE=
TTITLE0=I Love You
TTITLE1=Lost Again
TTITLE2=No More Words
TTITLE3=Crash Dance
TTITLE4=Great Mission
TTITLE5=You Gotta Say Yes To Another Excess
TTITLE6=Swing
TTITLE7=Heavy Whispers
TTITLE8=Smile On You
TTITLE9=Pumping Velvet
TTITLE10=Salut Mayoumba
TTITLE11=Base For Alec
TTITLE12=Rubber West
TTITLE13=You Gotta Say Yes To Another Excess [UK Promo 12'' Version]
TTITLE14=Live At The Roxy NY, December 1983
TTITLE15=Pumping Velvet [12'' Mix]
TTITLE16=I Love You [12'' Mix]
EXTD=
EXTT0=
EXTT1=
EXTT2=
EXTT3=
EXTT4=
EXTT5=
EXTT6=
EXTT7=
EXTT8=
EXTT9=
EXTT10=
EXTT11=
EXTT12=
EXTT13=
EXTT14=
EXTT15=
EXTT16=
PLAYORDER=
